<mxfile host="Electron" modified="2024-03-15T08:38:44.374Z" agent="Mozilla/5.0 (Macintosh; Intel Mac OS X 10_15_7) AppleWebKit/537.36 (KHTML, like Gecko) draw.io/23.0.2 Chrome/120.0.6099.109 Electron/28.1.0 Safari/537.36" etag="bKGHSAHqEIcuxCHgVN3y" version="23.0.2" type="device">
  <diagram name="Page-1" id="WcpX_i0bMfw6aboaMS5T">
    <mxGraphModel dx="1272" dy="969" grid="1" gridSize="10" guides="1" tooltips="1" connect="1" arrows="1" fold="1" page="1" pageScale="1" pageWidth="850" pageHeight="1100" math="0" shadow="0">
      <root>
        <mxCell id="0" />
        <mxCell id="1" parent="0" />
        <mxCell id="P8rvZheJh0c6LjdDySHc-5" style="edgeStyle=orthogonalEdgeStyle;rounded=0;orthogonalLoop=1;jettySize=auto;html=1;exitX=0;exitY=0.5;exitDx=0;exitDy=0;entryX=1;entryY=0.5;entryDx=0;entryDy=0;" edge="1" parent="1" source="P8rvZheJh0c6LjdDySHc-2" target="P8rvZheJh0c6LjdDySHc-3">
          <mxGeometry relative="1" as="geometry" />
        </mxCell>
        <mxCell id="P8rvZheJh0c6LjdDySHc-6" style="edgeStyle=orthogonalEdgeStyle;rounded=0;orthogonalLoop=1;jettySize=auto;html=1;exitX=1;exitY=0.5;exitDx=0;exitDy=0;entryX=0;entryY=0.5;entryDx=0;entryDy=0;" edge="1" parent="1" source="P8rvZheJh0c6LjdDySHc-2" target="P8rvZheJh0c6LjdDySHc-4">
          <mxGeometry relative="1" as="geometry" />
        </mxCell>
        <mxCell id="P8rvZheJh0c6LjdDySHc-2" value="Migrate Home &lt;br&gt;or &lt;br&gt;Continue Growing" style="shape=hexagon;perimeter=hexagonPerimeter2;whiteSpace=wrap;html=1;fixedSize=1;" vertex="1" parent="1">
          <mxGeometry x="370" y="130" width="120" height="80" as="geometry" />
        </mxCell>
        <mxCell id="P8rvZheJh0c6LjdDySHc-8" style="edgeStyle=orthogonalEdgeStyle;rounded=0;orthogonalLoop=1;jettySize=auto;html=1;exitX=0.5;exitY=1;exitDx=0;exitDy=0;entryX=0.5;entryY=0;entryDx=0;entryDy=0;" edge="1" parent="1" source="P8rvZheJh0c6LjdDySHc-3" target="P8rvZheJh0c6LjdDySHc-7">
          <mxGeometry relative="1" as="geometry" />
        </mxCell>
        <mxCell id="P8rvZheJh0c6LjdDySHc-3" value="Migrate" style="ellipse;whiteSpace=wrap;html=1;aspect=fixed;" vertex="1" parent="1">
          <mxGeometry x="250" y="130" width="80" height="80" as="geometry" />
        </mxCell>
        <mxCell id="P8rvZheJh0c6LjdDySHc-40" style="edgeStyle=orthogonalEdgeStyle;rounded=0;orthogonalLoop=1;jettySize=auto;html=1;exitX=0.5;exitY=1;exitDx=0;exitDy=0;" edge="1" parent="1" source="P8rvZheJh0c6LjdDySHc-4" target="P8rvZheJh0c6LjdDySHc-30">
          <mxGeometry relative="1" as="geometry" />
        </mxCell>
        <mxCell id="P8rvZheJh0c6LjdDySHc-4" value="Grow" style="ellipse;whiteSpace=wrap;html=1;aspect=fixed;" vertex="1" parent="1">
          <mxGeometry x="530" y="130" width="80" height="80" as="geometry" />
        </mxCell>
        <mxCell id="P8rvZheJh0c6LjdDySHc-10" style="edgeStyle=orthogonalEdgeStyle;rounded=0;orthogonalLoop=1;jettySize=auto;html=1;exitX=0.5;exitY=1;exitDx=0;exitDy=0;entryX=0.5;entryY=0;entryDx=0;entryDy=0;" edge="1" parent="1" source="P8rvZheJh0c6LjdDySHc-7" target="P8rvZheJh0c6LjdDySHc-9">
          <mxGeometry relative="1" as="geometry" />
        </mxCell>
        <mxCell id="P8rvZheJh0c6LjdDySHc-7" value="Choose Grid Cell &lt;br&gt;to Move Into" style="shape=hexagon;perimeter=hexagonPerimeter2;whiteSpace=wrap;html=1;fixedSize=1;" vertex="1" parent="1">
          <mxGeometry x="230" y="250" width="120" height="80" as="geometry" />
        </mxCell>
        <mxCell id="P8rvZheJh0c6LjdDySHc-9" value="Grid Cell" style="ellipse;whiteSpace=wrap;html=1;aspect=fixed;" vertex="1" parent="1">
          <mxGeometry x="250" y="370" width="80" height="80" as="geometry" />
        </mxCell>
        <mxCell id="P8rvZheJh0c6LjdDySHc-14" style="edgeStyle=orthogonalEdgeStyle;rounded=0;orthogonalLoop=1;jettySize=auto;html=1;exitX=0;exitY=0.5;exitDx=0;exitDy=0;" edge="1" parent="1" source="P8rvZheJh0c6LjdDySHc-11" target="P8rvZheJh0c6LjdDySHc-13">
          <mxGeometry relative="1" as="geometry" />
        </mxCell>
        <mxCell id="P8rvZheJh0c6LjdDySHc-21" style="edgeStyle=orthogonalEdgeStyle;rounded=0;orthogonalLoop=1;jettySize=auto;html=1;exitX=1;exitY=0.5;exitDx=0;exitDy=0;entryX=0;entryY=0.5;entryDx=0;entryDy=0;" edge="1" parent="1" source="P8rvZheJh0c6LjdDySHc-11" target="P8rvZheJh0c6LjdDySHc-20">
          <mxGeometry relative="1" as="geometry" />
        </mxCell>
        <mxCell id="P8rvZheJh0c6LjdDySHc-11" value="Keep Foraging&lt;br&gt;or&lt;br&gt;Look for New&lt;br&gt;Forage" style="shape=hexagon;perimeter=hexagonPerimeter2;whiteSpace=wrap;html=1;fixedSize=1;" vertex="1" parent="1">
          <mxGeometry x="650" y="370" width="120" height="80" as="geometry" />
        </mxCell>
        <mxCell id="P8rvZheJh0c6LjdDySHc-16" style="edgeStyle=orthogonalEdgeStyle;rounded=0;orthogonalLoop=1;jettySize=auto;html=1;exitX=0.5;exitY=1;exitDx=0;exitDy=0;entryX=0.5;entryY=0;entryDx=0;entryDy=0;" edge="1" parent="1" source="P8rvZheJh0c6LjdDySHc-13" target="P8rvZheJh0c6LjdDySHc-15">
          <mxGeometry relative="1" as="geometry" />
        </mxCell>
        <mxCell id="P8rvZheJh0c6LjdDySHc-13" value="Keep Foraging" style="ellipse;whiteSpace=wrap;html=1;aspect=fixed;" vertex="1" parent="1">
          <mxGeometry x="530" y="370" width="80" height="80" as="geometry" />
        </mxCell>
        <mxCell id="P8rvZheJh0c6LjdDySHc-18" style="edgeStyle=orthogonalEdgeStyle;rounded=0;orthogonalLoop=1;jettySize=auto;html=1;exitX=0.5;exitY=1;exitDx=0;exitDy=0;entryX=0.5;entryY=0;entryDx=0;entryDy=0;" edge="1" parent="1" source="P8rvZheJh0c6LjdDySHc-15" target="P8rvZheJh0c6LjdDySHc-17">
          <mxGeometry relative="1" as="geometry" />
        </mxCell>
        <mxCell id="P8rvZheJh0c6LjdDySHc-15" value="Choose Grid Cell &lt;br&gt;to Move Into" style="shape=hexagon;perimeter=hexagonPerimeter2;whiteSpace=wrap;html=1;fixedSize=1;" vertex="1" parent="1">
          <mxGeometry x="510" y="490" width="120" height="80" as="geometry" />
        </mxCell>
        <mxCell id="P8rvZheJh0c6LjdDySHc-17" value="Grid Cell" style="ellipse;whiteSpace=wrap;html=1;aspect=fixed;" vertex="1" parent="1">
          <mxGeometry x="530" y="610" width="80" height="80" as="geometry" />
        </mxCell>
        <mxCell id="P8rvZheJh0c6LjdDySHc-23" style="edgeStyle=orthogonalEdgeStyle;rounded=0;orthogonalLoop=1;jettySize=auto;html=1;exitX=0.5;exitY=1;exitDx=0;exitDy=0;entryX=0.5;entryY=0;entryDx=0;entryDy=0;" edge="1" parent="1" source="P8rvZheJh0c6LjdDySHc-20" target="P8rvZheJh0c6LjdDySHc-22">
          <mxGeometry relative="1" as="geometry" />
        </mxCell>
        <mxCell id="P8rvZheJh0c6LjdDySHc-20" value="Look for New&lt;br&gt;Forage" style="ellipse;whiteSpace=wrap;html=1;aspect=fixed;" vertex="1" parent="1">
          <mxGeometry x="810" y="370" width="80" height="80" as="geometry" />
        </mxCell>
        <mxCell id="P8rvZheJh0c6LjdDySHc-25" style="edgeStyle=orthogonalEdgeStyle;rounded=0;orthogonalLoop=1;jettySize=auto;html=1;exitX=0.5;exitY=1;exitDx=0;exitDy=0;entryX=0.5;entryY=0;entryDx=0;entryDy=0;" edge="1" parent="1" source="P8rvZheJh0c6LjdDySHc-22" target="P8rvZheJh0c6LjdDySHc-24">
          <mxGeometry relative="1" as="geometry" />
        </mxCell>
        <mxCell id="P8rvZheJh0c6LjdDySHc-22" value="Choose Heading" style="shape=hexagon;perimeter=hexagonPerimeter2;whiteSpace=wrap;html=1;fixedSize=1;" vertex="1" parent="1">
          <mxGeometry x="790" y="490" width="120" height="80" as="geometry" />
        </mxCell>
        <mxCell id="P8rvZheJh0c6LjdDySHc-27" style="edgeStyle=orthogonalEdgeStyle;rounded=0;orthogonalLoop=1;jettySize=auto;html=1;exitX=0.5;exitY=1;exitDx=0;exitDy=0;entryX=0.5;entryY=0;entryDx=0;entryDy=0;" edge="1" parent="1" source="P8rvZheJh0c6LjdDySHc-24" target="P8rvZheJh0c6LjdDySHc-26">
          <mxGeometry relative="1" as="geometry" />
        </mxCell>
        <mxCell id="P8rvZheJh0c6LjdDySHc-24" value="Heading" style="ellipse;whiteSpace=wrap;html=1;aspect=fixed;" vertex="1" parent="1">
          <mxGeometry x="810" y="610" width="80" height="80" as="geometry" />
        </mxCell>
        <mxCell id="P8rvZheJh0c6LjdDySHc-29" style="edgeStyle=orthogonalEdgeStyle;rounded=0;orthogonalLoop=1;jettySize=auto;html=1;exitX=0.5;exitY=1;exitDx=0;exitDy=0;entryX=0.5;entryY=0;entryDx=0;entryDy=0;" edge="1" parent="1" source="P8rvZheJh0c6LjdDySHc-26" target="P8rvZheJh0c6LjdDySHc-28">
          <mxGeometry relative="1" as="geometry" />
        </mxCell>
        <mxCell id="P8rvZheJh0c6LjdDySHc-26" value="Choose Grid Cell &lt;br&gt;to Move Into" style="shape=hexagon;perimeter=hexagonPerimeter2;whiteSpace=wrap;html=1;fixedSize=1;" vertex="1" parent="1">
          <mxGeometry x="790" y="730" width="120" height="80" as="geometry" />
        </mxCell>
        <mxCell id="P8rvZheJh0c6LjdDySHc-28" value="Grid Cell" style="ellipse;whiteSpace=wrap;html=1;aspect=fixed;" vertex="1" parent="1">
          <mxGeometry x="810" y="850" width="80" height="80" as="geometry" />
        </mxCell>
        <mxCell id="P8rvZheJh0c6LjdDySHc-35" style="edgeStyle=orthogonalEdgeStyle;rounded=0;orthogonalLoop=1;jettySize=auto;html=1;exitX=0;exitY=0.5;exitDx=0;exitDy=0;entryX=1;entryY=0.5;entryDx=0;entryDy=0;" edge="1" parent="1" source="P8rvZheJh0c6LjdDySHc-30" target="P8rvZheJh0c6LjdDySHc-31">
          <mxGeometry relative="1" as="geometry" />
        </mxCell>
        <mxCell id="P8rvZheJh0c6LjdDySHc-38" style="edgeStyle=orthogonalEdgeStyle;rounded=0;orthogonalLoop=1;jettySize=auto;html=1;exitX=1;exitY=0.5;exitDx=0;exitDy=0;entryX=0;entryY=0.5;entryDx=0;entryDy=0;" edge="1" parent="1" source="P8rvZheJh0c6LjdDySHc-30" target="P8rvZheJh0c6LjdDySHc-34">
          <mxGeometry relative="1" as="geometry" />
        </mxCell>
        <mxCell id="P8rvZheJh0c6LjdDySHc-30" value="Stay Attached to &lt;br&gt;Area as Juvenile or Leave" style="shape=hexagon;perimeter=hexagonPerimeter2;whiteSpace=wrap;html=1;fixedSize=1;" vertex="1" parent="1">
          <mxGeometry x="510" y="250" width="120" height="80" as="geometry" />
        </mxCell>
        <mxCell id="P8rvZheJh0c6LjdDySHc-36" style="edgeStyle=orthogonalEdgeStyle;rounded=0;orthogonalLoop=1;jettySize=auto;html=1;exitX=0.5;exitY=1;exitDx=0;exitDy=0;" edge="1" parent="1" source="P8rvZheJh0c6LjdDySHc-31" target="P8rvZheJh0c6LjdDySHc-32">
          <mxGeometry relative="1" as="geometry" />
        </mxCell>
        <mxCell id="P8rvZheJh0c6LjdDySHc-31" value="Stay" style="ellipse;whiteSpace=wrap;html=1;aspect=fixed;" vertex="1" parent="1">
          <mxGeometry x="390" y="250" width="80" height="80" as="geometry" />
        </mxCell>
        <mxCell id="P8rvZheJh0c6LjdDySHc-37" style="edgeStyle=orthogonalEdgeStyle;rounded=0;orthogonalLoop=1;jettySize=auto;html=1;exitX=0.5;exitY=1;exitDx=0;exitDy=0;entryX=0.5;entryY=0;entryDx=0;entryDy=0;" edge="1" parent="1" source="P8rvZheJh0c6LjdDySHc-32" target="P8rvZheJh0c6LjdDySHc-33">
          <mxGeometry relative="1" as="geometry" />
        </mxCell>
        <mxCell id="P8rvZheJh0c6LjdDySHc-32" value="Choose Grid Cell &lt;br&gt;to Move Into" style="shape=hexagon;perimeter=hexagonPerimeter2;whiteSpace=wrap;html=1;fixedSize=1;" vertex="1" parent="1">
          <mxGeometry x="370" y="370" width="120" height="80" as="geometry" />
        </mxCell>
        <mxCell id="P8rvZheJh0c6LjdDySHc-33" value="Grid Cell" style="ellipse;whiteSpace=wrap;html=1;aspect=fixed;" vertex="1" parent="1">
          <mxGeometry x="390" y="490" width="80" height="80" as="geometry" />
        </mxCell>
        <mxCell id="P8rvZheJh0c6LjdDySHc-39" style="edgeStyle=orthogonalEdgeStyle;rounded=0;orthogonalLoop=1;jettySize=auto;html=1;exitX=0.5;exitY=1;exitDx=0;exitDy=0;entryX=0.5;entryY=0;entryDx=0;entryDy=0;" edge="1" parent="1" source="P8rvZheJh0c6LjdDySHc-34" target="P8rvZheJh0c6LjdDySHc-11">
          <mxGeometry relative="1" as="geometry" />
        </mxCell>
        <mxCell id="P8rvZheJh0c6LjdDySHc-34" value="Leave" style="ellipse;whiteSpace=wrap;html=1;aspect=fixed;" vertex="1" parent="1">
          <mxGeometry x="670" y="250" width="80" height="80" as="geometry" />
        </mxCell>
      </root>
    </mxGraphModel>
  </diagram>
</mxfile>
